PathFileType	4	(X/Y/Z)	C:/Users/opensim2020/Desktop/walking_exp_matlab/subject03_walking10_straight_03.trc	
DataRate	CameraRate	NumFrames	NumMarkers	Units	OrigDataRate	OrigDataStartFrame	OrigNumFrames	
100.00	100.00	8	45	mm	100.00	2998	417	
Frame#	Time	LFHD			RFHD			LBHD			RBHD			C7			T10			CLAV			STRN			RBAK			LSHO			LUPA			LELB			LFRM			LWRA			LWRB			LFIN			RSHO			RUPA			RELB			RFRM			RWRA			RWRB			RFIN			LASI			RASI			LPSI			RPSI			LTHI			LKNE			LTIB			LANK			LHEE			LTOE			RTHI			RKNE			RTIB			RANK			RHEE			RTOE			*39			*40			*41			*42			*43			*44			
		X1	Y1	Z1	X2	Y2	Z2	X3	Y3	Z3	X4	Y4	Z4	X5	Y5	Z5	X6	Y6	Z6	X7	Y7	Z7	X8	Y8	Z8	X9	Y9	Z9	X10	Y10	Z10	X11	Y11	Z11	X12	Y12	Z12	X13	Y13	Z13	X14	Y14	Z14	X15	Y15	Z15	X16	Y16	Z16	X17	Y17	Z17	X18	Y18	Z18	X19	Y19	Z19	X20	Y20	Z20	X21	Y21	Z21	X22	Y22	Z22	X23	Y23	Z23	X24	Y24	Z24	X25	Y25	Z25	X26	Y26	Z26	X27	Y27	Z27	X28	Y28	Z28	X29	Y29	Z29	X30	Y30	Z30	X31	Y31	Z31	X32	Y32	Z32	X33	Y33	Z33	X34	Y34	Z34	X35	Y35	Z35	X36	Y36	Z36	X37	Y37	Z37	X38	Y38	Z38	X39	Y39	Z39	X40	Y40	Z40	X41	Y41	Z41	X42	Y42	Z42	X43	Y43	Z43	X44	Y44	Z44	X45	Y45	Z45	

261	2.600	1360.95679	563.22888	1622.57190	1493.48535	559.87164	1625.93750	1364.35669	444.33786	1558.47058	1495.18494	446.12271	1562.49475	1425.38892	430.09061	1412.88940	1427.71790	390.93628	1101.06152	1421.75439	554.05414	1336.79517	1420.94006	592.61499	1170.17065	1529.77869	382.48676	1242.77100	1266.21436	505.14835	1371.66125	1204.03479	467.47342	1173.11121	1197.39563	455.99863	1049.10803	1203.05200	467.58249	919.24689	1239.22107	474.19147	801.40924	1188.28455	450.05215	806.95538	1202.97937	456.22189	722.96838	1582.03101	519.68732	1363.21948	1655.98584	553.42456	1144.40015	1665.60205	588.63947	1036.64392	1661.32617	629.38568	905.68689	1617.84827	669.70941	818.13129	1666.46472	648.33606	807.23615	1650.57654	682.88776	742.72223	1317.12964	559.85907	932.66266	1554.01563	550.04834	930.61090	1356.37537	395.62042	959.82623	1506.24084	391.33795	970.69495	1271.81165	552.48260	634.60449	1317.41614	604.57666	466.33459	1313.92297	601.48846	274.78461	1351.09753	638.53040	68.52576	1391.09766	603.22247	34.18203	1364.02966	791.71851	39.80627	1590.17151	440.70920	645.60919	1560.08875	412.64691	467.58841	1559.74622	295.77606	310.20947	1508.80823	190.09222	119.35974	1456.42603	139.98424	107.94090	1486.12659	309.73950	34.15508																		 
262	2.610	1359.51355	570.29919	1623.89038	1491.73621	566.85669	1627.44568	1362.99878	451.74667	1559.54077	1493.83215	453.50610	1563.75500	1423.98108	437.75003	1414.01318	1426.75598	399.23636	1102.33020	1420.57031	561.82904	1338.18945	1419.88892	600.91925	1171.73401	1528.84607	390.35858	1244.15845	1265.09729	513.35168	1372.92456	1202.70166	477.20956	1174.24792	1196.16199	466.11411	1050.16809	1201.49329	478.17215	920.37457	1237.53271	485.02463	802.40881	1186.43079	461.17908	808.06177	1201.11584	467.21927	724.01282	1580.73096	527.32080	1364.77197	1654.72900	559.93372	1145.68530	1664.67786	594.01544	1037.66785	1660.80664	633.64160	906.32501	1617.69043	673.32257	818.22217	1666.23035	651.56628	807.66522	1650.66150	685.47113	742.66534	1315.69287	568.23694	934.52307	1552.64246	558.50995	931.53070	1355.34473	404.24487	961.76923	1505.19495	399.93298	971.80121	1270.61145	559.23895	636.27173	1316.28015	609.59424	467.28113	1312.83765	604.25854	275.25104	1350.78296	638.77802	68.60986	1390.67297	603.43622	34.10051	1363.70947	792.29028	39.25156	1589.85193	449.37500	646.28314	1560.65662	422.07281	468.00583	1560.46252	302.38678	312.45255	1509.93445	193.52603	123.38374	1457.38892	143.43549	113.49335	1486.43591	310.26505	34.15707	1406.68750	476.29880	1667.39417															 
263	2.620	1357.85303	577.42126	1625.41675	1490.26782	574.20856	1629.18518	1361.65405	459.06033	1560.65808	1492.44287	460.86209	1565.11011	1422.62585	445.36734	1415.19458	1425.66431	407.47287	1103.54590	1419.50305	569.56750	1339.68835	1418.84985	609.25995	1173.37988	1527.73181	398.38980	1245.41650	1264.00415	521.47186	1374.28577	1201.45789	486.61606	1175.47949	1194.79956	476.51761	1051.53076	1199.96240	489.04260	921.70880	1235.82190	496.16116	803.61066	1184.58704	472.52557	809.39099	1199.20459	478.64203	725.19635	1579.43970	534.84869	1366.32568	1653.55115	566.37799	1147.04932	1663.55933	599.44086	1038.70190	1660.32898	637.87732	907.05090	1617.61743	677.01788	818.38220	1666.06201	654.81030	808.19635	1650.73584	688.01654	742.67889	1314.16260	576.59778	936.20508	1551.16223	566.97375	932.63617	1354.30042	412.61685	963.63623	1504.07458	408.46915	972.99402	1269.54858	565.53094	637.70990	1315.18835	613.84998	467.92474	1312.05444	606.58392	275.59076	1350.64539	639.16345	68.67614	1390.44971	603.52838	34.20735	1363.60767	792.71381	38.72559	1589.23193	458.53787	646.82727	1561.54968	432.26764	468.35880	1561.27258	309.72821	314.85059	1511.10864	197.40919	127.76815	1458.42358	147.47804	119.50449	1486.74170	310.83130	34.17275	1410.52759	484.64362	1670.20239															 
264	2.630	1356.49695	584.58350	1626.67627	1489.39441	582.11407	1631.07959	1360.33240	466.26505	1561.80688	1491.05933	468.15771	1566.44580	1421.21753	452.99103	1416.29517	1424.37183	415.72629	1104.74426	1418.33789	577.15936	1341.10132	1417.75195	617.56763	1175.00549	1526.60486	406.25943	1246.51880	1262.87964	529.36285	1375.59546	1200.14526	496.07104	1176.66028	1193.43787	486.74994	1052.85718	1198.41272	500.05042	923.04102	1234.04663	507.61044	804.81299	1182.69116	484.22400	810.55750	1197.13904	490.41989	726.37036	1578.10767	542.18781	1367.96582	1652.31287	572.80670	1148.34924	1662.68628	604.52277	1039.78394	1659.83972	642.10876	907.78430	1617.67944	680.80139	818.87183	1665.88940	658.08923	808.78900	1650.79333	690.49902	742.66302	1312.59204	584.92279	937.67786	1549.57849	575.31610	933.79828	1352.93750	421.61288	965.08539	1502.71716	416.83563	974.12476	1268.80823	571.18158	638.73010	1314.09351	617.93640	468.42065	1311.65710	608.58691	275.77817	1350.61670	639.24359	68.59350	1390.35803	603.47125	34.44633	1363.70227	793.17236	38.34196	1588.97766	467.89362	647.41882	1562.67542	443.18604	468.61890	1562.41431	317.80200	317.38202	1512.40222	201.85629	132.36026	1459.40747	152.23883	125.94907	1486.89111	311.38281	34.06531	1408.44287	492.19406	1672.61609															 
265	2.640	1354.83728	591.62329	1627.94031	1487.88855	589.29382	1632.47241	1359.02771	473.39893	1562.91089	1489.68945	475.43311	1567.75354	1419.89624	460.38586	1417.23572	1422.84009	423.87747	1105.66187	1417.26892	584.74890	1342.48120	1416.68237	625.76160	1176.56128	1525.41455	414.00378	1247.52747	1261.82263	537.18561	1376.86938	1198.72437	505.38776	1177.85950	1191.80139	496.81528	1053.91980	1196.49414	511.23654	924.40015	1232.07825	519.46118	806.14990	1180.69775	496.30209	811.83008	1195.08752	502.57800	727.54999	1576.91101	549.39960	1369.35547	1651.14417	579.18695	1149.58582	1661.78809	610.05365	1040.78540	1659.42444	646.32727	908.49481	1617.51294	684.38269	818.91522	1665.73694	661.31604	809.27075	1650.80762	692.99579	742.62195	1311.03650	593.27930	938.99268	1548.00281	583.70697	934.98566	1351.56128	429.95645	966.49634	1501.24768	425.15759	975.31262	1268.27588	576.41254	639.51410	1313.29980	621.48163	468.68570	1311.53027	610.45215	275.92950	1351.03906	639.65503	68.70980	1390.49866	603.59308	34.49878	1363.82178	793.53851	37.92535	1588.85583	477.63724	647.94049	1564.12537	454.93750	468.80786	1563.61011	326.63544	319.73657	1513.87573	207.14377	137.09747	1460.45508	157.77036	132.68030	1486.98926	312.08459	33.99234	1402.70630	497.79587	1671.23694															 
266	2.650	1353.41760	598.71930	1629.01001	1486.09973	596.07178	1633.54712	1357.74927	480.52292	1563.98267	1488.40869	482.49542	1569.04309	1418.62451	467.60440	1418.02954	1421.22900	431.95435	1106.52283	1416.22925	592.24988	1343.70142	1415.54285	633.85632	1178.01257	1524.15564	421.64688	1248.29553	1260.75977	544.89050	1378.15247	1197.22717	514.74213	1179.09094	1190.23987	506.98828	1055.07983	1194.89453	522.44525	925.60144	1230.12061	531.56769	807.36615	1178.75488	508.52676	813.06036	1192.99768	515.14923	728.65582	1575.71191	556.48846	1370.58777	1650.05151	585.55322	1150.72058	1660.85437	615.31256	1041.66797	1659.01843	650.58173	909.09735	1617.47815	688.02563	819.00500	1665.55164	664.52893	809.66809	1651.00916	695.91937	742.75500	1309.46472	601.62109	940.01935	1546.39856	591.93304	936.20587	1350.00049	438.31271	967.78314	1499.63940	433.33481	976.34729	1267.87695	581.50513	640.18372	1312.39124	625.14282	468.72760	1311.49829	612.38916	276.07327	1351.47974	640.02197	68.81634	1390.70789	603.91034	34.37198	1364.11121	793.87762	37.57671	1589.01355	487.69446	648.42139	1565.72778	467.35812	468.83578	1564.99341	336.22046	321.96051	1514.95068	213.13641	142.16606	1461.56836	164.12364	139.75267	1487.11853	313.03958	34.12123	1400.66248	504.81732	1672.19312															 
267	2.660	1352.01855	605.78235	1629.95667	1484.76196	603.19623	1634.70789	1356.49463	487.52579	1564.94348	1487.10815	489.53876	1570.21143	1417.31079	474.81738	1418.78101	1419.43811	440.05341	1107.25427	1415.20874	599.65155	1344.77527	1414.41943	641.82147	1179.26221	1522.72729	429.16690	1248.88855	1259.68481	552.57367	1379.21814	1195.69385	523.92847	1180.14563	1188.42383	517.47723	1056.16431	1193.08289	533.95239	926.84216	1228.11951	543.94641	808.60925	1176.51526	521.06476	814.20770	1190.79382	528.17450	729.73187	1574.53101	563.41583	1371.63684	1648.93848	591.80164	1151.67761	1659.95703	620.60193	1042.44409	1658.64270	654.87927	909.62988	1617.53137	691.81781	819.10254	1665.57898	668.15582	810.07532	1650.80408	698.26361	742.29071	1307.92932	609.79462	940.80579	1544.79333	599.94305	937.33496	1348.26440	446.59760	968.82172	1497.90454	441.31296	977.24365	1267.52905	586.32904	640.59473	1311.74646	628.43677	468.74225	1311.37463	614.27435	276.17789	1351.93115	640.23322	68.78667	1391.10254	603.87848	34.85243	1364.45593	794.28821	37.29595	1589.16174	497.94885	648.69855	1567.42480	480.31720	468.71759	1566.37061	346.68155	324.04419	1516.74451	219.84862	147.09933	1462.86060	171.31674	147.00696	1487.13318	314.15271	34.28302	1397.28955	511.47964	1672.45959															 
268	2.670	1350.85815	612.70599	1630.65186	1483.37781	610.15729	1635.66101	1355.25098	494.44940	1565.77966	1485.85132	496.50000	1571.22058	1416.03528	481.89435	1419.30310	1417.60181	447.95667	1107.76025	1414.15662	606.95612	1345.68530	1413.30261	649.64160	1180.34778	1521.13232	436.47006	1249.24756	1258.65381	560.13562	1380.18347	1194.05725	533.13141	1181.03906	1186.75195	527.81805	1057.10010	1191.16736	545.53864	927.93420	1226.10352	556.42926	809.67456	1174.47644	533.76953	815.15112	1188.64563	541.55951	730.74207	1573.37756	570.19873	1372.45654	1647.91272	597.91974	1152.44641	1659.10437	625.85620	1043.02832	1658.30872	659.20868	909.98059	1617.55847	695.75330	819.07886	1665.54541	671.74274	810.32886	1650.87622	701.15320	742.02783	1306.53003	617.82050	941.35254	1543.26526	607.86218	938.34546	1346.60059	454.65121	969.76538	1496.19141	449.04031	978.06268	1266.75488	591.35706	640.92780	1311.16284	631.87726	468.52182	1311.08594	616.38062	276.23883	1352.34546	640.22656	68.88614	1391.19897	603.98431	34.81044	1364.70081	794.56549	37.04258	1589.38928	508.47528	648.81635	1569.12158	493.92068	468.32294	1567.86975	358.16818	326.11697	1518.51453	227.52948	152.01395	1464.51855	179.31305	154.36734	1487.04871	315.43967	34.46883	1398.34973	519.07281	1674.27734															 
